<?xml version="1.0" encoding="iso-8859-1"?>
<!-- Generator: Adobe Illustrator 22.1.0, SVG Export Plug-In . SVG Version: 6.00 Build 0)  -->
<svg xmlns="http://www.w3.org/2000/svg" xmlns:xlink="http://www.w3.org/1999/xlink" version="1.1" id="Layer_1_1_" x="0px" y="0px" viewBox="0 0 64 64" style="enable-background:new 0 0 64 64;" xml:space="preserve" width="512" height="512">
<g>
	<path d="M59.506,22.787l-1.896,0.637c0.226,0.672,0.427,1.363,0.598,2.054l1.941-0.48C59.965,24.254,59.748,23.511,59.506,22.787z"/>
	<path d="M41.213,4.494c-0.724-0.242-1.467-0.459-2.21-0.643l-0.48,1.941c0.69,0.171,1.382,0.372,2.054,0.598L41.213,4.494z"/>
	<path d="M48.341,41.639c0.445-0.752,0.835-1.528,1.171-2.326c-0.599-0.839-1.25-1.637-1.967-2.354C46.3,35.714,44.576,35,42.815,35   c-1.032,0-2.066,0.244-2.991,0.706l-0.754,0.377C37.869,36.683,36.525,37,35.185,37h-0.582c-3.094,0-5.63,2.517-5.654,5.61   c-0.015,1.896-0.728,3.711-2.009,5.109l-1.809,1.975C27.264,50.526,29.576,51,32,51c3.381,0,6.705-0.923,9.639-2.659   C42.745,45.218,45.218,42.745,48.341,41.639z M36,42h-2v-2h2V42z M39,47h-2v-2h2V47z M43,39h-2v-2h2V39z"/>
	<path d="M29,20.674V22c0,1.103,0.897,2,2,2c2.757,0,5,2.243,5,5s-2.243,5-5,5h-3.5c-1.379,0-2.5,1.121-2.5,2.5   c0,2.481-2.019,4.5-4.5,4.5h-5.227c1.802,3.336,4.578,6.067,7.939,7.829l2.253-2.46c0.945-1.033,1.473-2.373,1.483-3.774   C26.98,38.407,30.414,35,34.603,35h0.582c1.032,0,2.066-0.244,2.991-0.706l0.754-0.377c1.201-0.6,2.545-0.917,3.886-0.917   c2.32,0,4.503,0.903,6.144,2.545c0.472,0.472,0.922,0.971,1.349,1.492C50.763,35.401,51,33.708,51,32   c0-1.251-0.129-2.472-0.361-3.656C48.349,30.06,45.588,31,42.695,31C40.106,31,38,28.894,38,26.305   c0-1.681-0.906-3.242-2.365-4.076l-1.262-0.721C32.293,20.319,31,18.092,31,15.695c0-0.931,0.217-1.839,0.587-2.681   c-2.657,0.059-5.268,0.682-7.675,1.823l2.144,1.072C27.872,16.817,29,18.643,29,20.674z"/>
	<path d="M12,21c4.963,0,9-4.037,9-9s-4.037-9-9-9s-9,4.037-9,9S7.037,21,12,21z M12,13c-1.654,0-3-1.346-3-3   c0-1.302,0.839-2.402,2-2.816V5h2v2.184c1.161,0.414,2,1.514,2,2.816h-2c0-0.552-0.448-1-1-1s-1,0.448-1,1s0.448,1,1,1   c1.654,0,3,1.346,3,3c0,1.302-0.839,2.402-2,2.816V19h-2v-2.184C9.839,16.402,9,15.302,9,14h2c0,0.552,0.448,1,1,1s1-0.448,1-1   S12.552,13,12,13z"/>
	<path d="M15.659,22.361C13.923,25.295,13,28.619,13,32c0,2.473,0.489,4.831,1.353,7H20.5c1.379,0,2.5-1.121,2.5-2.5   c0-2.481,2.019-4.5,4.5-4.5H31c1.654,0,3-1.346,3-3s-1.346-3-3-3c-2.206,0-4-1.794-4-4v-1.326c0-1.269-0.704-2.408-1.839-2.975   l-2.998-1.5C20.973,19.068,18.6,21.319,15.659,22.361z M23,27h2v2h-2V27z M18,33h-2v-2h2V33z M21,25h-2v-2h2V25z"/>
	<path d="M35.365,19.771l1.262,0.721C38.707,21.681,40,23.908,40,26.305C40,27.791,41.209,29,42.695,29   c2.738,0,5.338-0.991,7.398-2.784c-2.276-7.103-8.622-12.396-16.284-13.124C33.294,13.86,33,14.763,33,15.695   C33,17.376,33.906,18.938,35.365,19.771z"/>
	<path d="M19.644,48.942c-1.756-1.284-3.302-2.83-4.586-4.586l-4.283,4.283c-1.489-1.89-2.744-3.966-3.681-6.198L5.25,43.215   c1.037,2.472,2.436,4.768,4.102,6.847L6,53.414l-3-3V61h10.586l-3-3l3.359-3.359c2.079,1.666,4.369,3.072,6.84,4.109l0.773-1.844   c-2.232-0.937-4.306-2.194-6.195-3.684L19.644,48.942z M9.707,55.707l-1.414-1.414l2-2l1.414,1.414L9.707,55.707z M14.293,48.293   l1.414,1.414l-2,2l-1.414-1.414L14.293,48.293z"/>
	<path d="M50.414,3l3,3l-3.359,3.359c-2.079-1.666-4.369-3.072-6.84-4.109l-0.773,1.844c2.231,0.937,4.304,2.196,6.193,3.685   l-4.279,4.279c1.756,1.284,3.302,2.83,4.586,4.586l4.283-4.283c1.489,1.89,2.745,3.966,3.682,6.197l1.844-0.773   c-1.037-2.472-2.436-4.768-4.102-6.847L58,10.586l3,3V3H50.414z M49.707,15.707l-1.414-1.414l2-2l1.414,1.414L49.707,15.707z    M53.707,11.707l-1.414-1.414l2-2l1.414,1.414L53.707,11.707z"/>
	<path d="M52,43c-4.963,0-9,4.037-9,9s4.037,9,9,9s9-4.037,9-9S56.963,43,52,43z M52,51c1.654,0,3,1.346,3,3   c0,1.302-0.839,2.402-2,2.816V59h-2v-2.184c-1.161-0.414-2-1.514-2-2.816h2c0,0.552,0.448,1,1,1s1-0.448,1-1s-0.448-1-1-1   c-1.654,0-3-1.346-3-3c0-1.302,0.839-2.402,2-2.816V45h2v2.184c1.161,0.414,2,1.514,2,2.816h-2c0-0.552-0.448-1-1-1s-1,0.448-1,1   S51.448,51,52,51z"/>
	<path d="M22.787,59.506c0.724,0.242,1.467,0.459,2.21,0.643l0.48-1.941c-0.69-0.171-1.382-0.372-2.054-0.598L22.787,59.506z"/>
	<path d="M4.494,41.213l1.896-0.637c-0.226-0.672-0.427-1.363-0.598-2.054l-1.941,0.48C4.035,39.746,4.252,40.489,4.494,41.213z"/>
</g>
</svg>
