<svg id="Capa_1" enable-background="new 0 0 512 512" height="512" viewBox="0 0 512 512" width="512" xmlns="http://www.w3.org/2000/svg"><g><path d="m258.948 486.398 49.552-49.532c4.07-4.07 5.458-10.12 3.552-15.547l-26.36-75.428-91.128 97.339 43.169 43.169c5.863 5.862 15.352 5.862 21.215-.001z"/><path d="m166.123 226.324-75.421-26.356c-5.427-1.906-11.477-.518-15.547 3.552l-49.552 49.532c-5.863 5.863-5.863 15.352 0 21.215l43.169 43.167z"/><path d="m.401 408.703c-1.192 5.065.311 10.378 3.988 14.055l84.853 84.853c3.677 3.677 8.99 5.18 14.055 3.988s9.146-4.92 10.783-9.851l13.537-40.613-76.752-76.752-40.613 13.537c-4.931 1.637-8.659 5.718-9.851 10.783z"/><path d="m376.775 70.091-125.852 118.279 72.727 72.728 118.279-125.853z"/><path d="m511.618 18.364c1.159-5.034-.353-10.316-3.999-13.962-.011-.011-.011-.011-.011-.011-3.646-3.646-8.917-5.169-13.951-4.008-27.014 6.172-65.453 19.794-94.911 49.252l63.64 63.64c29.405-29.407 43.006-67.847 49.232-94.911z"/><path d="m152.767 437.373c4.07-.073 7.934-1.802 10.71-4.785l139.719-149.518-74.246-74.247-149.539 139.7c-2.983 2.776-4.711 6.639-4.785 10.71s1.512 7.996 4.391 10.875l62.875 62.875c2.879 2.878 6.805 4.464 10.875 4.39zm-10.492-88.861 70.765-70.747c5.863-5.861 15.35-5.861 21.213 0 5.863 5.863 5.863 15.352 0 21.215l-70.765 70.745c-5.863 5.863-15.35 5.863-21.213 0s-5.863-15.35 0-21.213z"/><path d="m345.152 282.019-.28.3 27.266 27.266c5.863 5.863 15.352 5.863 21.213 0l43.427-43.426c4.268-4.268 5.563-10.659 3.283-16.252l-19.521-48.073z"/><path d="m231.318 165.625 78.875-74.145-48.082-19.523c-5.592-2.278-11.984-.983-16.251 3.285l-43.427 43.426c-5.861 5.863-5.861 15.352 0 21.213l27.259 27.259z"/></g></svg>