<svg id="Capa_1" enable-background="new 0 0 512 512" height="512" viewBox="0 0 512 512" width="512" xmlns="http://www.w3.org/2000/svg"><g>
<path fill="#6afadc" d="m421 160c0-22.576-18.951-42.589-53.363-56.354-30.061-12.024-69.708-18.646-111.637-18.646s-81.576 6.622-111.637 18.646c-34.412 13.765-53.363 33.778-53.363 56.354 0 19.088 13.083 35.92 37.5 48.968v-31.468c0-14.805 8.742-28.256 22.271-34.269 34.584-15.371 69.989-23.165 105.229-23.165s70.644 7.794 105.23 23.166c13.528 6.011 22.27 19.462 22.27 34.268v31.468c24.417-13.048 37.5-29.88 37.5-48.968z"/><g>
<path fill="#6afadc" d="m348.274 65.937c-13.116-38.357-49.473-65.937-92.274-65.937-42.801 0-79.157 27.58-92.274 65.937 27.71-7.123 59.462-10.937 92.274-10.937s64.564 3.814 92.274 10.937z"/></g><g>
<path fill="#6afadc" d="m246 153c0 23.986 19.514 43.5 43.5 43.5h64v-19c0-2.964-1.746-5.65-4.454-6.854-34.18-15.191-68.627-21.956-103.046-20.327z"/>
<path fill="#6afadc" d="m172.5 196.5c23.695 0 43.012-19.046 43.478-42.632-17.719 3.362-35.407 8.948-53.024 16.778-2.708 1.204-4.454 3.89-4.454 6.854v19z"/>
<path fill="#6afadc" d="m289.5 226.5c-23.844 0-45.063-11.42-58.5-29.07-13.437 17.649-34.656 29.07-58.5 29.07h-14v6c0 53.848 43.652 97.5 97.5 97.5 53.848 0 97.5-43.652 97.5-97.5v-6z"/></g><g><g>
<path fill="#6afadc" d="m216 353.566v16.434h-13.697c11.449 25.424 30.258 47.306 53.697 62.42 23.439-15.114 42.248-36.996 53.697-62.42h-13.697v-16.434c-12.587 4.169-26.033 6.434-40 6.434s-27.413-2.265-40-6.434z"/></g><g>
<path fill="#6afadc" d="m342.149 370.015-2.223 5.556c-13.604 34.01-37.997 63.289-68.927 82.86v53.569h100v-49.999c0-8.284 6.716-15 15-15s15 6.716 15 15v49.999h58c6.627 0 12-5.373 12-12 .001-71.413-57.583-129.367-128.85-129.985z"/>
<path fill="#6afadc" d="m172.073 375.571-2.223-5.556c-71.266.618-128.85 58.572-128.85 129.985 0 6.627 5.373 12 12 12h58v-49.999c0-8.284 6.716-15 15-15s15 6.716 15 15v49.999h100v-53.569c-30.93-19.571-55.323-48.85-68.927-82.86z"/></g></g></g></svg>