<svg id="_x33_0" enable-background="new 0 0 64 64" height="512" viewBox="0 0 64 64" width="512" xmlns="http://www.w3.org/2000/svg"><g>
<path fill="#6afadc" d="m38 54h-2v-4h-2v-7.212l-2.102-2.89-1.898 2.499v7.603h-2v4h-2v4h-2v4h16v-4h-2z"/>
<path fill="#6afadc" d="m22.914 24.328c-.209-.208-.498-.328-.793-.328-.618 0-1.121.503-1.121 1.121 0 .3.116.581.328.793l.758.758c.209.208.498.328.793.328.618 0 1.121-.503 1.121-1.121 0-.3-.116-.581-.328-.793z"/>
<path fill="#6afadc" d="m25.121 21c-.618 0-1.121.503-1.121 1.121 0 .3.116.581.328.793l1.758 1.758c.209.208.498.328.793.328.618 0 1.121-.503 1.121-1.121 0-.3-.116-.581-.328-.793l-1.758-1.758c-.209-.208-.498-.328-.793-.328z"/>
<path fill="#6afadc" d="m28.121 18c-.618 0-1.121.503-1.121 1.121 0 .3.116.581.328.793l1.758 1.758c.209.208.498.328.793.328.618 0 1.121-.503 1.121-1.121 0-.3-.116-.581-.328-.793l-1.758-1.758c-.209-.208-.498-.328-.793-.328z"/>
<path fill="#6afadc" d="m31.879 18c.618 0 1.121-.503 1.121-1.121 0-.3-.116-.581-.328-.793l-.758-.758c-.209-.208-.498-.328-.793-.328-.618 0-1.121.503-1.121 1.121 0 .3.116.581.328.793l.758.758c.209.208.498.328.793.328z"/>
<path fill="#6afadc" d="m23.14 32.553c-.051.086-.092.177-.148.261l-10.345 15.277-2.269-9.558c-.301-1.404-1.039-2.621-2.029-3.566-1.989-.129-3.818-.84-5.323-1.967h-.026v11.856l3.486 11.854c.743 2.526 3.101 4.29 5.735 4.29 2.027 0 3.898-1.014 5.006-2.712l12.508-19.14z"/>
<path fill="#6afadc" d="m55.651 34.967c-.991.945-1.728 2.163-2.029 3.566l-2.194 9.241-9.222-11.566-6.113 6.112 10.673 15.957c1.115 1.709 2.986 2.723 5.013 2.723 2.634 0 4.991-1.764 5.734-4.291l3.487-11.853v-11.856h-.026c-1.505 1.127-3.334 1.838-5.323 1.967z"/>
<path fill="#6afadc" d="m34.96 40.626 6.084-6.084c-.551-.98-.878-2.07-.983-3.19l-6.774 6.773z"/>
<path fill="#6afadc" d="m24 29.486c0 .34-.036.675-.093 1.007l7.093 7.093 11.672-11.672c.212-.212.328-.493.328-.793 0-.618-.503-1.121-1.121-1.121-.295 0-.584.12-.793.328l-5.379 5.379-1.414-1.414 5.379-5.379c.212-.212.328-.493.328-.793 0-.618-.503-1.121-1.121-1.121-.295 0-.584.12-.793.328l-5.379 5.379-1.414-1.414 5.379-5.379c.212-.212.328-.493.328-.793 0-.618-.503-1.121-1.121-1.121-.295 0-.584.12-.793.328l-2.127 2.127c.019.14.041.28.041.424 0 1.684-1.342 3.051-3.011 3.11-.059 1.669-1.427 3.011-3.11 3.011-.356 0-.704-.073-1.036-.191-.285.906-.963 1.633-1.843 1.974z"/>
<path fill="#6afadc" d="m57.72 6h2.28c1.105 0 2-.895 2-2s-.895-2-2-2h-56c-1.105 0-2 .895-2 2s.895 2 2 2h2.28l-5.28 17v2c0 4.411 3.589 8 8 8s8-3.589 8-8v-2l-5.28-17h18.28v7.217c.349-.135.725-.217 1.121-.217.82 0 1.624.333 2.205.912l.674.674v-8.586h18.28l-5.28 17v2c0 4.411 3.589 8 8 8s8-3.589 8-8v-2zm-42.72 17h-12l5.387-17h1.226zm34 0 5.387-17h1.226l5.387 17z"/></g></svg>