<svg fill="#6afadc" id="Layer_1" enable-background="new 0 0 510 510" viewBox="0 0 510 510"  xmlns="http://www.w3.org/2000/svg">
<g fill="#6afadc" id="XMLID_4195_">
<path fill="#6afadc" id="XMLID_4196_" d="m114.913 401.549c7.838-9.175 12.587-21.064 12.587-34.049 0-28.948-23.551-52.5-52.5-52.5s-52.5 23.552-52.5 52.5c0 12.984 4.749 24.874 12.587 34.049-21.06 13.295-35.087 36.759-35.087 63.451v45h150v-45c0-26.692-14.027-50.156-35.087-63.451z"/>
<path fill="#6afadc" id="XMLID_4198_" d="m294.913 401.549c7.839-9.175 12.587-21.064 12.587-34.049 0-28.948-23.552-52.5-52.5-52.5-28.949 0-52.5 23.552-52.5 52.5 0 12.984 4.749 24.874 12.587 34.049-21.06 13.295-35.087 36.759-35.087 63.451v45h150v-45c0-26.693-14.027-50.156-35.087-63.451z"/>
<path fill="#6afadc" id="XMLID_4207_" d="m474.913 401.549c7.839-9.175 12.587-21.064 12.587-34.049 0-28.948-23.552-52.5-52.5-52.5s-52.5 23.552-52.5 52.5c0 12.984 4.748 24.874 12.587 34.049-21.06 13.295-35.087 36.758-35.087 63.451v45h150v-45c0-26.693-14.027-50.156-35.087-63.451z"/>
<path fill="#6afadc" id="XMLID_4290_" d="m0 0v240h91.507l54.853 54.853 54.853-54.853h100.294l54.853 54.853 54.853-54.853h98.787v-240zm450 165h-390v-30h390zm0-60h-390v-30h390z"/></g></svg>