<svg id="Layer_5" enable-background="new 0 0 64 64" height="512" viewBox="0 0 64 64" width="512" xmlns="http://www.w3.org/2000/svg"><g>
<path fill="#6afadc" d="m53.856 49.478 1.537-6.531c-.679-.06-1.334-.205-1.95-.448l-1.533 6.511c-.946.021-1.802.378-2.477.948l-3.172-2.247-.905 1.81 2.914 2.064c-.167.441-.27.915-.27 1.415 0 2.206 1.794 4 4 4s4-1.794 4-4c0-1.532-.876-2.851-2.144-3.522z"/>
<path fill="#6afadc" d="m9 21.08c3.059.441 5.479 2.861 5.92 5.92h1.08c0-1.654 1.346-3 3-3 2.045 0 3.802 1.237 4.576 3h2.119c-2.834-1.992-4.695-5.28-4.695-9s1.861-7.008 4.695-9h-10.775c-.441 3.059-2.861 5.479-5.92 5.92z"/>
<path fill="#6afadc" d="m9 9v3.899c1.956-.399 3.5-1.943 3.899-3.899z"/>
<path fill="#6afadc" d="m49.08 9h-10.775c2.834 1.992 4.695 5.28 4.695 9s-1.861 7.008-4.695 9h10.775c.441-3.059 2.861-5.479 5.92-5.92v-6.16c-3.059-.441-5.479-2.861-5.92-5.92z"/>
<path fill="#6afadc" d="m55 9h-3.899c.399 1.956 1.943 3.5 3.899 3.899z"/>
<path fill="#6afadc" d="m9 29h7v2h-7z"/>
<path fill="#6afadc" d="m9 33h7v2h-7z"/>
<path fill="#6afadc" d="m24 29h31v2h-31z"/>
<path fill="#6afadc" d="m9 27h3.899c-.399-1.956-1.943-3.5-3.899-3.899z"/>
<path fill="#6afadc" d="m46 37h-20.12c.711.878 1.12 1.977 1.12 3.141v1.859h-2v-1.859c0-1.006-.499-1.938-1.336-2.496l-1.664-1.11v-7.535c0-1.654-1.346-3-3-3-.552 0-1 .449-1 1v13.667c0 1.934.64 3.852 1.8 5.4l3.7 4.933h18.882l2.668-5.336c.622-1.243.95-2.635.95-4.025z"/>
<path fill="#6afadc" d="m57 31.101v5.899h-5.899c.465 2.279 2.484 4 4.899 4 2.757 0 5-2.243 5-5 0-2.414-1.721-4.434-4-4.899z"/>
<path fill="#6afadc" d="m24 33h31v2h-31z"/>
<path fill="#6afadc" d="m43 53h-20c-.552 0-1 .449-1 1v7h22v-7c0-.551-.448-1-1-1z"/>
<path fill="#6afadc" d="m3 3v14h4v-8h-2v-2h54v2h-2v8h4v-14z"/>
<path fill="#6afadc" d="m55 23.101c-1.956.399-3.5 1.943-3.899 3.899h3.899z"/>
<path fill="#6afadc" d="m23 18c0 4.962 4.037 9 9 9s9-4.038 9-9-4.037-9-9-9-9 4.038-9 9zm12-2.146v.146h-2v-.146c0-.471-.384-.854-.854-.854h-.291c-.471 0-.855.383-.855.854 0 .326.181.619.473.764l1.949.975c.974.487 1.578 1.465 1.578 2.553 0 1.274-.845 2.343-2 2.709v2.145h-2v-2.145c-1.155-.366-2-1.435-2-2.709v-.146h2v.146c0 .471.384.854.854.854h.291c.471 0 .855-.383.855-.854 0-.326-.181-.619-.473-.764l-1.949-.975c-.974-.487-1.578-1.465-1.578-2.553 0-1.274.845-2.343 2-2.709v-2.145h2v2.145c1.155.366 2 1.435 2 2.709z"/>
<path fill="#6afadc" d="m17.116 45.469-8.364 8.363c-.79-.523-1.735-.832-2.752-.832-2.757 0-5 2.243-5 5s2.243 5 5 5 5-2.243 5-5c0-1.017-.309-1.963-.833-2.753l8.012-8.011c-.412-.554-.763-1.148-1.063-1.767z"/></g></svg>