<?xml version="1.0" encoding="iso-8859-1"?>
<!-- Generator: Adobe Illustrator 19.0.0, SVG Export Plug-In . SVG Version: 6.00 Build 0)  -->
<svg version="1.1" id="Layer_1" xmlns="http://www.w3.org/2000/svg" xmlns:xlink="http://www.w3.org/1999/xlink" x="0px" y="0px"
	 viewBox="0 0 512.03 512.03" style="enable-background:new 0 0 512.03 512.03;" xml:space="preserve">
<g>
	<g>
		<g>
			<path fill="#6afadc" d="M53.353,256.025h83.435c3.584,0,6.912-1.792,8.896-4.779c10.517-15.936,27.584-40.917,48.981-69.547
				c2.517-3.392,2.837-7.936,0.768-11.563c-2.048-3.712-6.165-5.952-10.24-5.44l-68.779,6.059c-2.496,0.213-4.843,1.323-6.613,3.093
				l-64,64c-3.051,3.051-3.968,7.637-2.304,11.627S49.044,256.025,53.353,256.025z"/>
			<path fill="#6afadc" d="M83.327,324.207c-2.773-2.752-6.869-3.797-10.603-2.667c-13.888,4.16-26.539,11.883-37.589,22.933
				C-0.321,379.972-0.129,489.135,0.02,501.465c0.064,5.781,4.757,10.496,10.539,10.56c0.789,0,2.005,0,3.563,0
				c22.613,0,120.277-1.963,153.429-35.136c11.072-11.072,18.773-23.701,22.933-37.589c1.109-3.755,0.085-7.829-2.688-10.603
				L83.327,324.207z"/>
			<path fill="#6afadc" d="M508.884,3.14c-2.133-2.155-5.205-3.307-8.128-3.115c-4.779,0.256-117.824,7.296-198.933,88.405
				c-72.789,72.789-138.624,174.635-149.227,191.339l-40.021,20.011c-3.072,1.536-5.205,4.437-5.76,7.829s0.555,6.827,2.987,9.259
				l85.333,85.333c2.027,2.027,4.736,3.115,7.552,3.115c0.555,0,1.152-0.043,1.707-0.128c3.371-0.555,6.293-2.688,7.829-5.76
				l20.032-40.021c16.725-10.624,118.549-76.437,191.339-149.227c81.109-81.088,88.171-194.155,88.427-198.933
				C512.148,8.239,511.017,5.295,508.884,3.14z M373.353,170.692c-17.664,0-32-14.379-32-32c0-17.664,14.336-32,32-32
				c17.664,0,32,14.336,32,32C405.353,156.313,391.017,170.692,373.353,170.692z"/>
			<path fill="#6afadc" d="M341.929,316.569c-3.669-2.027-8.171-1.771-11.584,0.789c-28.672,21.44-53.653,38.485-69.547,48.981
				c-3.008,1.963-4.8,5.312-4.8,8.896v83.435c0,4.309,2.603,8.213,6.592,9.856c1.323,0.555,2.709,0.811,4.075,0.811
				c2.773,0,5.504-1.088,7.552-3.115l64-64c1.771-1.771,2.859-4.096,3.093-6.613l6.059-68.779
				C347.753,322.649,345.62,318.617,341.929,316.569z"/>
		</g>
	</g>
</g>
</svg>
