<?xml version="1.0"?>
<svg 
    xmlns="http://www.w3.org/2000/svg"
    id="Layer_1"
    data-name="Layer 1"
    viewBox="0 0 512 512" >
    <rect fill="#6afadc" x="44" y="378" width="36" height="41"/>
    <polygon fill="#6afadc" points="66 207.013 125 234.502 125 181 66 181 66 207.013"/>
    <rect fill="#6afadc" x="84" y="35" width="15" height="134"/>
    <rect fill="#6afadc" x="44" y="293" width="36" height="41"/>
    <polygon fill="#6afadc" points="199 206.32 258 233.755 258 181 199 181 199 206.32"/>
    <rect fill="#6afadc" x="178" y="378" width="37" height="41"/>
    <rect fill="#6afadc" x="178" y="293" width="37" height="41"/>
    <rect fill="#6afadc" x="221" y="76" width="15" height="93"/>
    <path fill="#6afadc" d="M468,277.473l-77.639-58.925L313,277.263V477h37V361.92a6.124,6.124,0,0,1,6.22-5.92h67.843A5.878,5.878,0,0,1,430,361.92V477h38ZM451,316a6,6,0,0,1-6,6H335a6,6,0,0,1-6-6V294a6,6,0,0,1,6-6H445a6,6,0,0,1,6,6Z"/>
    <path fill="#6afadc" d="M468,142.01c0-33.58-27.7-60.9-61.727-60.9a59.658,59.658,0,0,0-42.959,17.968C351.993,110.636,346,126.094,346,142.607v94.664l40.831-31.032a5.749,5.749,0,0,1,7.071,0L468,262.213Z"/>
    <rect fill="#6afadc" x="341" y="300" width="98" height="10"/><path fill="#6afadc" d="M166,267.222,44,209.779V281H86.26A5.849,5.849,0,0,1,92,287.075V340.23A5.591,5.591,0,0,1,86.26,346H44v20H86.26A5.83,5.83,0,0,1,92,372.054V425.21A5.608,5.608,0,0,1,86.26,431H44v46H166Z"/>
    <path fill="#6afadc" d="M178,477H301V286.344l-14.822,11.094a6.2,6.2,0,0,1-8.57-1.164,6.02,6.02,0,0,1,1.273-8.4L301,271.3v-4.2L178,209.771V281h42.548c3.313,0,6.452,2.762,6.452,6.075V340.23c0,3.314-3.139,5.77-6.452,5.77H178v20h42.548c3.313,0,6.452,2.74,6.452,6.054V425.21c0,3.313-3.139,5.79-6.452,5.79H178Z"/>
    <rect fill="#6afadc" x="362" y="368" width="56" height="109"/></svg>
