<svg id="Capa_1" enable-background="new 0 0 512.071 512.071" height="512" viewBox="0 0 512.071 512.071" width="512" xmlns="http://www.w3.org/2000/svg"><g>
<path fill="#6afadc" d="m241.035 0h30v30h-30z"/>
<path fill="#6afadc" d="m411.444 70.323h30v30.383h-30z" transform="matrix(.707 -.707 .707 .707 64.437 326.593)"/>
<path fill="#6afadc" d="m70.435 70.515h30.383v30h-30.383z" transform="matrix(.707 -.707 .707 .707 -35.389 85.592)"/>
<path fill="#6afadc" d="m241.035 323.327h-34.108v-30h34.108v-219.651c-39.302 3.002-75.594 19.374-103.452 46.959-31.122 30.816-48.262 71.938-48.262 115.791 0 44.202 18.178 86.681 50.017 117.225l13.213 43.808h88.485v-74.132z"/>
<path fill="#6afadc" d="m159.788 427.458 10.123 84.613h71.125v-84.613z"/>
<path fill="#6afadc" d="m445.136 264.443c-2.714-33.681-27.437-53.906-48.434-61.124 3.443-20.931 4.279-49.458-9.766-70.841-8.92-13.579-22.882-22.321-40.378-25.281-3.229-.546-6.127-.824-8.761-.898 1.848 17.391 3.064 35.978 1.284 45.512-4.454 23.856-8.077 40.362-21.602 47.875l-14.568-26.225c4.975-2.764 7.636-63.085 2.782-91.443-10.786-6.183-22.701-8.527-34.658-9.042v220.349 30 74.131 30 84.613h1.52c17.671 0 34.496-1.628 49.352-15.949 4.217-23.105-11.369-63.256-17.602-68.258l18.777-23.397c13.976 11.217 20.935 47.946 24.031 73.682 17.231-9.927 29.919-28.408 33.633-50.251 16.533-8.241 32.033-25.835 29.639-63.098-.343-5.337-1.318-9.87-2.669-13.799-14.02 0-27.453 0-27.487 0-3.925 0-31.316-.534-52.335-14.92-17.097-11.703-23.173-31.351-23.81-33.553l28.82-8.331-.03-.102c.97 3.178 5.01 12.469 11.965 17.229 13.858 9.485 35.095 9.676 35.431 9.676h50.882c10.318-16.487 15.556-37.041 13.984-56.555z"/></g></svg>