<svg height="448pt" viewBox="-96 0 448 448" width="448pt" xmlns="http://www.w3.org/2000/svg">
<path fill="#6afadc" d="m215.703125 137.710938 16.296875-6.984376v-130.726562h-16.015625zm0 0"/>
<path fill="#6afadc" d="m24 130.726562 15.703125 6.730469.28125-137.457031h-15.984375zm0 0"/>
<path fill="#6afadc" d="m55.6875 144.304688 72.3125 30.992187 71.6875-30.722656.296875-144.574219h-144zm0 0"/>
<path fill="#6afadc" d="m128 192c-70.691406 0-128 57.308594-128 128s57.308594 128 128 128 128-57.308594 128-128c-.082031-70.65625-57.34375-127.917969-128-128zm0 240c-61.855469 0-112-50.144531-112-112s50.144531-112 112-112 112 50.144531 112 112c-.066406 61.828125-50.171875 111.933594-112 112zm0 0"/>
<path fill="#6afadc" d="m136 292.945312-8-24.722656v-.09375l-8 24.800782c-2.140625 6.609374-8.300781 11.082031-15.246094 11.070312h-25.992187l21.03125 15.28125c5.617187 4.066406 7.964843 11.296875 5.808593 17.886719l-8 24.71875 21.023438-15.277344c5.601562-4.09375 13.210938-4.09375 18.816406 0l21.03125 15.269531-8.074218-24.710937c-2.15625-6.589844.191406-13.820313 5.808593-17.886719l21.03125-15.28125h-25.992187c-6.941406.011719-13.101563-4.453125-15.246094-11.054688zm0 0"/>
<path fill="#6afadc" d="m128 224c-53.019531 0-96 42.980469-96 96s42.980469 96 96 96 96-42.980469 96-96c-.058594-52.996094-43.003906-95.941406-96-96zm58.648438 92.945312-21.046876 15.277344 8 24.722656c2.136719 6.589844-.210937 13.808594-5.816406 17.878907-5.601562 4.074219-13.191406 4.078125-18.800781.007812l-20.984375-15.28125-21.03125 15.28125c-5.582031 4.148438-13.226562 4.148438-18.808594 0-5.671875-4.027343-8.03125-11.296875-5.808594-17.886719l8-24.722656-21.03125-15.277344c-5.613281-4.078124-7.957031-11.308593-5.808593-17.90625 2.152343-6.597656 8.308593-11.054687 15.25-11.039062h25.992187l8-24.71875c2.15625-6.566406 8.285156-11.003906 15.199219-11.003906 6.910156 0 13.039063 4.4375 15.199219 11.003906l8 24.71875h25.992187c6.929688 0 13.074219 4.460938 15.21875 11.054688s-.203125 13.816406-5.8125 17.890624zm0 0"/></svg>