<svg id="Capa_1" enable-background="new 0 0 512 512" height="512" viewBox="0 0 512 512" width="512" xmlns="http://www.w3.org/2000/svg"><g>
<path fill="#6afadc" d="m256 242c-74.439 0-135 60.56-135 135s60.561 135 135 135 135-60.56 135-135-60.561-135-135-135zm0 195c-33.084 0-60-26.916-60-60s26.916-60 60-60 60 26.916 60 60-26.916 60-60 60z"/>
<circle fill="#6afadc" cx="256" cy="377" r="30"/>
<path fill="#6afadc" d="m231 0h50v212h-50z"/>
<path fill="#6afadc" d="m376 0h-65v212h25c3.978 0 7.793-1.581 10.606-4.394l40-40c2.813-2.812 4.394-6.628 4.394-10.606v-142c0-8.284-6.716-15-15-15z"/>
<path fill="#6afadc" d="m165.394 207.606c2.812 2.813 6.628 4.394 10.606 4.394h25v-212h-65c-8.284 0-15 6.716-15 15v142c0 3.978 1.581 7.794 4.394 10.606z"/></g></svg>