<svg id="Layer_1" enable-background="new 0 0 512.092 512.092" height="512" viewBox="0 0 512.092 512.092" width="512" xmlns="http://www.w3.org/2000/svg"><path fill="#6afadc" d="m208 384.046h-17.61c-2.08-10.2-6.11-19.69-11.68-28.08l12.48-12.49c6.25-6.24 6.25-16.38 0-22.62-6.24-6.25-16.38-6.25-22.62 0l-12.49 12.48c-8.39-5.57-17.88-9.6-28.08-11.68v-17.61c0-8.84-7.16-16-16-16s-16 7.16-16 16v17.61c-10.2 2.08-19.69 6.11-28.08 11.68l-12.49-12.48c-6.24-6.25-16.38-6.25-22.62 0-6.25 6.24-6.25 16.38 0 22.62l12.48 12.49c-5.57 8.39-9.6 17.88-11.68 28.08h-17.61c-8.84 0-16 7.16-16 16s7.16 16 16 16h17.61c2.08 10.2 6.11 19.69 11.68 28.08l-12.48 12.49c-6.25 6.24-6.25 16.38 0 22.62 6.214 6.234 16.368 6.273 22.62 0l12.49-12.48c8.39 5.57 17.88 9.6 28.08 11.68v17.61c0 8.84 7.16 16 16 16s16-7.16 16-16v-17.61c10.2-2.08 19.69-6.11 28.08-11.68l12.49 12.48c6.214 6.234 16.368 6.273 22.62 0 6.25-6.24 6.25-16.38 0-22.62l-12.48-12.49c5.57-8.39 9.6-17.88 11.68-28.08h17.61c8.84 0 16-7.16 16-16s-7.16-16-16-16zm-50.67 31.76c-4.82 13.81-15.76 24.75-29.57 29.57-1.27-7.56-7.84-13.33-15.76-13.33s-14.49 5.77-15.76 13.33c-13.81-4.82-24.75-15.76-29.57-29.57 7.56-1.27 13.33-7.84 13.33-15.76s-5.77-14.49-13.33-15.76c4.82-13.81 15.76-24.75 29.57-29.57 1.27 7.56 7.84 13.33 15.76 13.33s14.49-5.77 15.76-13.33c13.81 4.82 24.75 15.76 29.57 29.57-7.56 1.27-13.33 7.84-13.33 15.76s5.77 14.49 13.33 15.76z"/><path fill="#6afadc" d="m200.538 288.804c22.514 10.671 33.323 37.432 24.06 60.904-.986 2.499.183 5.283 2.643 6.363 16.918 7.427 28.759 24.348 28.759 43.975 0 19.626-11.84 36.547-28.757 43.975-2.469 1.084-3.625 3.878-2.639 6.387 7.347 18.698 2.09 39.938-12.478 53.128-3.314 3-1.166 8.51 3.304 8.51h219.159c61.384 0 98.773-68.723 64.41-120.35-106.03-159.023-76.055-114.082-115-172.49v-187.16c9.094 0 16.41-7.577 15.982-16.766-.401-8.608-7.813-15.234-16.431-15.234h-143.101c-8.618 0-16.03 6.626-16.431 15.234-.428 9.188 6.888 16.766 15.982 16.766v187.16l-41.439 62.339c-1.675 2.52-.757 5.963 1.977 7.259zm215.462 87.242c0 17.65-14.36 32-32 32s-32-14.35-32-32 14.36-32 32-32 32 14.35 32 32zm-178.1-96c24.918-37.383 17.842-26.767 31.41-47.12 1.76-2.63 2.69-5.72 2.69-8.88v-192h80v192c0 3.16.93 6.25 2.69 8.88 13.05 19.575 5.85 8.777 31.42 47.12zm54.1 120c15.44 0 28 12.56 28 28s-12.56 28-28 28-28-12.56-28-28 12.56-28 28-28zm-36-68c0-11.03 8.97-20 20-20s20 8.97 20 20-8.97 20-20 20-20-8.97-20-20z"/></svg>