<svg id="Layer_1" enable-background="new 0 0 512.058 512.058" height="512" viewBox="0 0 512.058 512.058" width="512" xmlns="http://www.w3.org/2000/svg"><g>
<path fill="#6afadc" d="m446.179 403.39v-403.39h-380.3v512.058h271.532v-108.668zm-301.865-333.399h223.429v30h-223.429zm0 60.004h223.429v30h-223.429zm0 60.003h223.429v30h-223.429zm79.889 224.387c-44.28 0-80.305-36.024-80.305-80.305s36.024-80.305 80.305-80.305h143.956v95.305h-65.056c-7.043 37.138-39.744 65.305-78.9 65.305z"/>
<path fill="#6afadc" d="m367.411 433.39v78.638l78.748-78.638z"/>
<path fill="#6afadc" d="m173.898 334.08c0 27.738 22.566 50.305 50.305 50.305s50.305-22.566 50.305-50.305v-15h63.651v-35.305h-113.956c-27.738 0-50.305 22.567-50.305 50.305zm72.172 0c0 12.058-9.81 21.867-21.867 21.867s-21.867-9.81-21.867-21.867 9.81-21.867 21.867-21.867 21.867 9.809 21.867 21.867z"/></g></svg>